<?xml version="1.0" encoding="UTF-8"?>
<svg width="46px" height="34px" viewBox="0 0 46 34" version="1.1" xmlns="http://www.w3.org/2000/svg" xmlns:xlink="http://www.w3.org/1999/xlink">
    <!-- Generator: Sketch 62 (91390) - https://sketch.com -->
    <title>Group 2 Copy</title>
    <desc>Created with Sketch.</desc>
    <g id="Page-2" stroke="none" stroke-width="1" fill="none" fill-rule="evenodd">
        <g id="Artboard" transform="translate(-31.000000, -31.000000)" stroke="#333A3D" stroke-width="1.99999988">
            <g id="Group-2-Copy" transform="translate(32.000000, 32.000000)">
                <g id="Group">
                    <path d="M21.7999987,-1.42108539e-15 L12.1609957,-1.42108539e-15 C9.06820132,3.52301499e-17 6.56099607,2.50720525 6.56099607,5.59999967 L6.56099607,8.35942828 L6.56099607,8.35942828" id="Path"></path>
                    <path d="M21.7999987,1.42108539e-15 C21.7999987,7.81784966 21.7999987,13.2215263 21.7999987,16.21103 C17.6161774,16.21103 13.4323561,16.7236231 9.24853487,17.7488092 L9.24853487,11.7267745" id="Path-2"></path>
                    <circle id="Oval" cx="4.59999973" cy="11.8401784" r="4.59999973"></circle>
                    <polyline id="Path-3" points="4.59999973 16.4401781 4.59999973 28.0100751 21.7999987 28.0100751 21.7999987 16.21103"></polyline>
                    <rect id="Rectangle" x="7.19999957" y="28.0401774" width="3.59999979" height="3.59999979"></rect>
                </g>
                <g id="Group" transform="translate(32.599997, 16.000000) scale(-1, 1) translate(-32.599997, -16.000000) translate(21.599997, 0.000000)" stroke-dasharray="3.999999761581421,1.199999928474426">
                    <path d="M21.7999987,-1.42108539e-15 L12.1609957,-1.42108539e-15 C9.06820132,3.52301499e-17 6.56099607,2.50720525 6.56099607,5.59999967 L6.56099607,8.35942828 L6.56099607,8.35942828" id="Path"></path>
                    <path d="M21.7999987,1.42108539e-15 C21.7999987,7.81784966 21.7999987,13.2215263 21.7999987,16.21103 C17.6161774,16.21103 13.4323561,16.7236231 9.24853487,17.7488092 L9.24853487,11.7267745" id="Path-2"></path>
                    <path d="M4.59999973,16.4401781 C7.14050942,16.4401781 9.19999945,14.3806881 9.19999945,11.8401784 C9.19999945,9.29966866 7.14050942,7.24017863 4.59999973,7.24017863 C2.05949003,7.24017863 0,9.29966866 0,11.8401784 C0,14.3806881 2.05949003,16.4401781 4.59999973,16.4401781 Z" id="Oval"></path>
                    <path d="M4.59999973,16.4401781 L4.59999973,28.0100751 L21.7999987,28.0100751 L21.7999987,16.21103" id="Path-3"></path>
                    <path d="M7.19999957,28.0401774 L10.7999994,28.0401774 L10.7999994,31.6401772 L7.19999957,31.6401772 L7.19999957,28.0401774 Z" id="Rectangle"></path>
                </g>
            </g>
        </g>
    </g>
</svg>