<?xml version="1.0" encoding="UTF-8"?>
<svg width="216px" height="34px" viewBox="0 0 216 34" version="1.1" xmlns="http://www.w3.org/2000/svg" xmlns:xlink="http://www.w3.org/1999/xlink">
    <!-- Generator: Sketch 62 (91390) - https://sketch.com -->
    <title>Page 2</title>
    <desc>Created with Sketch.</desc>
    <g id="Page-2" stroke="none" stroke-width="1" fill="none" fill-rule="evenodd">
        <g id="Artboard" transform="translate(-31.000000, -116.000000)">
            <path d="M99.1308594,143.246094 L107.566406,123.900391 L103.697266,123.900391 L98.4335938,136.164062 L93.0332031,123.900391 L89.1367188,123.900391 L97.8457031,143.246094 L99.1308594,143.246094 Z M114.033203,143.246094 C115.363932,143.246094 116.583008,142.958984 117.69043,142.384766 C118.797852,141.810547 119.636393,141.026693 120.206055,140.033203 C120.775716,139.039714 121.060547,137.882161 121.060547,136.560547 C121.060547,135.29362 120.764323,134.158854 120.171875,133.15625 C119.579427,132.153646 118.740885,131.374349 117.65625,130.818359 C116.571615,130.26237 115.363932,129.984375 114.033203,129.984375 C112.720703,129.984375 111.526693,130.260091 110.451172,130.811523 C109.375651,131.362956 108.537109,132.137695 107.935547,133.135742 C107.333984,134.133789 107.033203,135.275391 107.033203,136.560547 C107.033203,137.882161 107.318034,139.039714 107.887695,140.033203 C108.457357,141.026693 109.289062,141.810547 110.382812,142.384766 C111.476562,142.958984 112.693359,143.246094 114.033203,143.246094 Z M114.005859,140.757812 C112.957682,140.757812 112.121419,140.377279 111.49707,139.616211 C110.872721,138.855143 110.560547,137.836589 110.560547,136.560547 C110.560547,135.330078 110.879557,134.341146 111.517578,133.59375 C112.155599,132.846354 112.985026,132.472656 114.005859,132.472656 C115.090495,132.472656 115.949544,132.825846 116.583008,133.532227 C117.216471,134.238607 117.533203,135.238932 117.533203,136.533203 C117.533203,137.891276 117.21875,138.934896 116.589844,139.664062 C115.960938,140.393229 115.099609,140.757812 114.005859,140.757812 Z M127.117188,143 L127.117188,134.550781 C127.645833,133.876302 128.135742,133.393229 128.586914,133.101562 C129.038086,132.809896 129.51888,132.664062 130.029297,132.664062 C130.73112,132.664062 131.284831,132.916992 131.69043,133.422852 C132.096029,133.928711 132.298828,134.610026 132.298828,135.466797 L132.298828,135.466797 L132.298828,143 L135.648438,143 L135.648438,134.824219 C135.648438,133.384115 135.233724,132.217448 134.404297,131.324219 C133.57487,130.43099 132.48112,129.984375 131.123047,129.984375 C129.591797,129.984375 128.283854,130.663411 127.199219,132.021484 L127.199219,132.021484 L127.117188,132.021484 L127.117188,123.900391 L123.753906,123.900391 L123.753906,143 L127.117188,143 Z M142.265625,143 L142.265625,134.509766 C142.8125,133.798828 143.313802,133.29069 143.769531,132.985352 C144.22526,132.680013 144.712891,132.527344 145.232422,132.527344 C145.916016,132.527344 146.456055,132.76888 146.852539,133.251953 C147.249023,133.735026 147.447266,134.391276 147.447266,135.220703 L147.447266,135.220703 L147.447266,143 L150.796875,143 L150.796875,134.878906 C150.796875,133.411458 150.388997,132.228841 149.573242,131.331055 C148.757487,130.433268 147.666016,129.984375 146.298828,129.984375 C145.533203,129.984375 144.824544,130.141602 144.172852,130.456055 C143.521159,130.770508 142.885417,131.292318 142.265625,132.021484 L142.265625,132.021484 L142.265625,130.230469 L138.902344,130.230469 L138.902344,143 L142.265625,143 Z M165.056641,143 L165.056641,140.484375 L158.384766,140.484375 L165.029297,130.230469 L153.298828,130.230469 L153.298828,132.773438 L159.451172,132.773438 L152.792969,143 L165.056641,143 Z M169.117188,128.138672 C169.645833,128.138672 170.094727,127.944987 170.463867,127.557617 C170.833008,127.170247 171.017578,126.725911 171.017578,126.224609 C171.017578,125.705078 170.830729,125.258464 170.457031,124.884766 C170.083333,124.511068 169.636719,124.324219 169.117188,124.324219 C168.615885,124.324219 168.173828,124.508789 167.791016,124.87793 C167.408203,125.24707 167.216797,125.695964 167.216797,126.224609 C167.216797,126.725911 167.405924,127.170247 167.78418,127.557617 C168.162435,127.944987 168.606771,128.138672 169.117188,128.138672 Z M170.798828,143 L170.798828,130.230469 L167.435547,130.230469 L167.435547,143 L170.798828,143 Z M177.634766,143 L177.634766,134.509766 C178.154297,133.817057 178.641927,133.313477 179.097656,132.999023 C179.553385,132.68457 180.054688,132.527344 180.601562,132.527344 C181.276042,132.527344 181.813802,132.775716 182.214844,133.272461 C182.615885,133.769206 182.816406,134.455078 182.816406,135.330078 L182.816406,135.330078 L182.816406,143 L186.166016,143 L186.166016,134.509766 C187.113932,133.188151 188.102865,132.527344 189.132812,132.527344 C189.852865,132.527344 190.402018,132.782552 190.780273,133.292969 C191.158529,133.803385 191.347656,134.500651 191.347656,135.384766 L191.347656,135.384766 L191.347656,143 L194.710938,143 L194.710938,134.824219 C194.710938,133.356771 194.296224,132.183268 193.466797,131.303711 C192.63737,130.424154 191.548177,129.984375 190.199219,129.984375 C189.342448,129.984375 188.556315,130.187174 187.84082,130.592773 C187.125326,130.998372 186.407552,131.643229 185.6875,132.527344 C185.35026,131.752604 184.842122,131.135091 184.163086,130.674805 C183.484049,130.214518 182.652344,129.984375 181.667969,129.984375 C180.847656,129.984375 180.123047,130.150716 179.494141,130.483398 C178.865234,130.816081 178.245443,131.328776 177.634766,132.021484 L177.634766,132.021484 L177.634766,130.230469 L174.271484,130.230469 L174.271484,143 L177.634766,143 Z M201.328125,143 L201.328125,134.509766 C201.847656,133.817057 202.335286,133.313477 202.791016,132.999023 C203.246745,132.68457 203.748047,132.527344 204.294922,132.527344 C204.969401,132.527344 205.507161,132.775716 205.908203,133.272461 C206.309245,133.769206 206.509766,134.455078 206.509766,135.330078 L206.509766,135.330078 L206.509766,143 L209.859375,143 L209.859375,134.509766 C210.807292,133.188151 211.796224,132.527344 212.826172,132.527344 C213.546224,132.527344 214.095378,132.782552 214.473633,133.292969 C214.851888,133.803385 215.041016,134.500651 215.041016,135.384766 L215.041016,135.384766 L215.041016,143 L218.404297,143 L218.404297,134.824219 C218.404297,133.356771 217.989583,132.183268 217.160156,131.303711 C216.330729,130.424154 215.241536,129.984375 213.892578,129.984375 C213.035807,129.984375 212.249674,130.187174 211.53418,130.592773 C210.818685,130.998372 210.100911,131.643229 209.380859,132.527344 C209.04362,131.752604 208.535482,131.135091 207.856445,130.674805 C207.177409,130.214518 206.345703,129.984375 205.361328,129.984375 C204.541016,129.984375 203.816406,130.150716 203.1875,130.483398 C202.558594,130.816081 201.938802,131.328776 201.328125,132.021484 L201.328125,132.021484 L201.328125,130.230469 L197.964844,130.230469 L197.964844,143 L201.328125,143 Z M227.837891,143.246094 C229.970703,143.246094 231.784505,142.717448 233.279297,141.660156 L233.279297,141.660156 L233.279297,139.158203 C232.486328,139.723307 231.718424,140.144857 230.975586,140.422852 C230.232747,140.700846 229.460286,140.839844 228.658203,140.839844 C227.409505,140.839844 226.427409,140.532227 225.711914,139.916992 C224.996419,139.301758 224.570312,138.424479 224.433594,137.285156 L224.433594,137.285156 L233.470703,137.285156 L233.470703,136.779297 C233.470703,134.655599 232.923828,132.992188 231.830078,131.789062 C230.736328,130.585938 229.250651,129.984375 227.373047,129.984375 C225.477214,129.984375 223.939128,130.599609 222.758789,131.830078 C221.578451,133.060547 220.988281,134.646484 220.988281,136.587891 C220.988281,138.602214 221.626302,140.215495 222.902344,141.427734 C224.178385,142.639974 225.823568,143.246094 227.837891,143.246094 Z M230.3125,135.248047 L224.488281,135.248047 C224.625,134.272786 224.950846,133.534505 225.46582,133.033203 C225.980794,132.531901 226.662109,132.28125 227.509766,132.28125 C228.339193,132.28125 228.990885,132.543294 229.464844,133.067383 C229.938802,133.591471 230.221354,134.318359 230.3125,135.248047 L230.3125,135.248047 Z M239.472656,143 L239.472656,137.175781 C239.472656,136.53776 239.625326,135.89974 239.930664,135.261719 C240.236003,134.623698 240.641602,134.111003 241.147461,133.723633 C241.65332,133.336263 242.166016,133.142578 242.685547,133.142578 C243.277995,133.142578 244.061849,133.507161 245.037109,134.236328 L245.037109,134.236328 L246.240234,131.296875 C245.666016,130.822917 245.162435,130.485677 244.729492,130.285156 C244.296549,130.084635 243.856771,129.984375 243.410156,129.984375 C242.671875,129.984375 241.992839,130.260091 241.373047,130.811523 C240.753255,131.362956 240.138021,132.253906 239.527344,133.484375 L239.527344,133.484375 L239.472656,133.484375 L239.472656,130.230469 L236.109375,130.230469 L236.109375,143 L239.472656,143 Z" id="Vohnzimmer" fill="#333A3D" fill-rule="nonzero"></path>
            <g id="Group-2-Copy" transform="translate(32.000000, 117.000000)" stroke="#333A3D" stroke-width="1.99999988">
                <g id="Group">
                    <path d="M21.7999987,-1.42108539e-15 L12.1609957,-1.42108539e-15 C9.06820132,3.52301499e-17 6.56099607,2.50720525 6.56099607,5.59999967 L6.56099607,8.35942828 L6.56099607,8.35942828" id="Path"></path>
                    <path d="M21.7999987,1.42108539e-15 C21.7999987,7.81784966 21.7999987,13.2215263 21.7999987,16.21103 C17.6161774,16.21103 13.4323561,16.7236231 9.24853487,17.7488092 L9.24853487,11.7267745" id="Path-2"></path>
                    <circle id="Oval" cx="4.59999973" cy="11.8401784" r="4.59999973"></circle>
                    <polyline id="Path-3" points="4.59999973 16.4401781 4.59999973 28.0100751 21.7999987 28.0100751 21.7999987 16.21103"></polyline>
                    <rect id="Rectangle" x="7.19999957" y="28.0401774" width="3.59999979" height="3.59999979"></rect>
                </g>
                <g id="Group" transform="translate(32.599997, 16.000000) scale(-1, 1) translate(-32.599997, -16.000000) translate(21.599997, 0.000000)" stroke-dasharray="3.999999761581421,1.199999928474426">
                    <path d="M21.7999987,-1.42108539e-15 L12.1609957,-1.42108539e-15 C9.06820132,3.52301499e-17 6.56099607,2.50720525 6.56099607,5.59999967 L6.56099607,8.35942828 L6.56099607,8.35942828" id="Path"></path>
                    <path d="M21.7999987,1.42108539e-15 C21.7999987,7.81784966 21.7999987,13.2215263 21.7999987,16.21103 C17.6161774,16.21103 13.4323561,16.7236231 9.24853487,17.7488092 L9.24853487,11.7267745" id="Path-2"></path>
                    <path d="M4.59999973,16.4401781 C7.14050942,16.4401781 9.19999945,14.3806881 9.19999945,11.8401784 C9.19999945,9.29966866 7.14050942,7.24017863 4.59999973,7.24017863 C2.05949003,7.24017863 0,9.29966866 0,11.8401784 C0,14.3806881 2.05949003,16.4401781 4.59999973,16.4401781 Z" id="Oval"></path>
                    <path d="M4.59999973,16.4401781 L4.59999973,28.0100751 L21.7999987,28.0100751 L21.7999987,16.21103" id="Path-3"></path>
                    <path d="M7.19999957,28.0401774 L10.7999994,28.0401774 L10.7999994,31.6401772 L7.19999957,31.6401772 L7.19999957,28.0401774 Z" id="Rectangle"></path>
                </g>
            </g>
        </g>
    </g>
</svg>